# xmcd
#
# Track frame offsets:
#	150
#	16460
#	30797
#	35205
#	52837
#	67247
#	84082
#	102987
#	124757
#	138527
#	139402
#	149675
#	162875
#	172752
#	183092
#	198405
#	214677
#	259534
#	285460
#	316725
#
# Disc length: 4631 seconds
#
# Revision: 1
# Processed by: cddbd v1.4PL0 Copyright (c) Steve Scherf et al.
# Submitted via: EasyCDDAExtractor 5.0.7
#
DISCID=18121514
DTITLE=JORGE MOISEIS - O CANTOR DO PEDAGIO
DYEAR=1900
DGENRE=SERTANEJO
TTITLE0=ABERTURA
TTITLE1=COWBOY VIOLENTO
TTITLE2=VERSO (LIVRO ABERTO)
TTITLE3=A ORACAO
TTITLE4=PEDAGIO II
TTITLE5=QUANDO O BRASIL ERA NOSSO
TTITLE6=METE O CHIFRE NELE
TTITLE7=FUSCAO PRETO - ARAPUCA - LINDA CIGANA - TROPEIRO
TTITLE8=E O FUMO
TTITLE9=VERSO DA PERERECA
TTITLE10=RA E PERERECA
TTITLE11=SE O REMEDIO NAO VOLTAR
TTITLE12=ABERTURA - BAIXARIA
TTITLE13=VOCETAINCHADA
TTITLE14=O JEGUE (VERSO "O JEGUE")
TTITLE15=PEIDA QUILHERMINA
TTITLE16=NARRACAO DE AMERICANA
TTITLE17=(POEMA) A NATUREZA ESTA CHORANDO
TTITLE18=ESTORIA DO LUIZINHO
TTITLE19=DECLAMADO (ZE DO PRATO)
EXTD=
EXTT0=
EXTT1=
EXTT2=
EXTT3=
EXTT4=
EXTT5=
EXTT6=
EXTT7=
EXTT8=
EXTT9=
EXTT10=
EXTT11=
EXTT12=
EXTT13=
EXTT14=
EXTT15=
EXTT16=
EXTT17=
EXTT18=
EXTT19=
PLAYORDER=
